# xmcd
#
# Track frame offsets:
#	150
#	19497
#	36680
#	62762
#	80555
#	95892
#	108947
#	128122
#
# Disc length: 1908 seconds
#
# Revision: 0
# Processed by: cddbd v1.5.1PL2 Copyright (c) Steve Scherf et al.
# Submitted via: audiograbber 1.83.01
#
DISCID=72077208
DTITLE=Little Walter and Otis Rush - Blues Masters
DYEAR=1994
DGENRE=Blues
TTITLE0=You're So Fine 
TTITLE1=May Be The Last Time
TTITLE2=It's So Hard For Me To Believe You Baby
TTITLE3=All About My Girl
TTITLE4=Walter's Blues
TTITLE5=I Got You 
TTITLE6=Goin' Down Slow
TTITLE7=Watermelon Man
EXTD=Tomato is a registered Trademark of The EGGE Company Limited.  For your co
EXTD=mments or additional information regarding Tomato, you can contact us at w
EXTD=ww.theeggecompany.com <http://www.theeggecompany.com>  \n
EXTT0=Little Walter
EXTT1=Otis Rush
EXTT2=Otis Rush
EXTT3=Otis Rush
EXTT4=Little Walter
EXTT5=Otis Rush
EXTT6=Little Walter
EXTT7=Little Walter
PLAYORDER=
